<svg width="32" height="32" viewBox="0 0 32 32" fill="none" xmlns="http://www.w3.org/2000/svg">
<rect width="32" height="32" fill="white"/>
<mask id="path-1-inside-1_1269_6321" fill="white">
<path fill-rule="evenodd" clip-rule="evenodd" d="M20.6098 10.3242C19.792 10.1065 18.914 10 18 10C13.5817 10 10 13.5817 10 18C10 19.6518 10.5006 21.1867 11.3584 22.4612C11.1582 22.3753 10.964 22.2758 10.7892 22.1609C10.3215 21.8538 10.102 21.576 9.93735 21.3677C9.77274 21.1594 9.66299 21.0205 9.41473 20.991C9.26884 20.9738 9.04489 21.0775 8.77246 21.2037C8.1177 21.5069 7.18284 21.9399 6.37804 21.1346C5.54413 20.3002 6.08306 19.3708 6.45595 18.7277C6.59268 18.4919 6.70709 18.2946 6.72331 18.1546C6.73939 18.0158 6.67665 17.9425 6.58455 17.8349C6.33042 17.538 5.85272 16.9799 6.19062 14.0634C6.70567 9.61801 10.6682 6.53816 15.0557 7.05819C17.3715 7.33265 19.3409 8.57078 20.6098 10.3242Z"/>
</mask>
<path fill-rule="evenodd" clip-rule="evenodd" d="M20.6098 10.3242C19.792 10.1065 18.914 10 18 10C13.5817 10 10 13.5817 10 18C10 19.6518 10.5006 21.1867 11.3584 22.4612C11.1582 22.3753 10.964 22.2758 10.7892 22.1609C10.3215 21.8538 10.102 21.576 9.93735 21.3677C9.77274 21.1594 9.66299 21.0205 9.41473 20.991C9.26884 20.9738 9.04489 21.0775 8.77246 21.2037C8.1177 21.5069 7.18284 21.9399 6.37804 21.1346C5.54413 20.3002 6.08306 19.3708 6.45595 18.7277C6.59268 18.4919 6.70709 18.2946 6.72331 18.1546C6.73939 18.0158 6.67665 17.9425 6.58455 17.8349C6.33042 17.538 5.85272 16.9799 6.19062 14.0634C6.70567 9.61801 10.6682 6.53816 15.0557 7.05819C17.3715 7.33265 19.3409 8.57078 20.6098 10.3242Z" fill="#323232"/>
<path d="M20.6098 10.3242L20.3526 11.2905L23.0663 12.0129L21.4199 9.7379L20.6098 10.3242ZM11.3584 22.4612L10.964 23.3801L14.0836 24.7193L12.188 21.9029L11.3584 22.4612ZM10.7892 22.1609L11.3382 21.3251L11.3382 21.3251L10.7892 22.1609ZM9.93735 21.3677L10.722 20.7477L10.722 20.7477L9.93735 21.3677ZM9.41473 20.991L9.29703 21.9841L9.29703 21.9841L9.41473 20.991ZM8.77246 21.2037L8.35218 20.2963H8.35218L8.77246 21.2037ZM6.37804 21.1346L5.67071 21.8415H5.67071L6.37804 21.1346ZM6.45595 18.7277L5.59087 18.2261L5.59086 18.2261L6.45595 18.7277ZM6.72331 18.1546L7.71666 18.2697H7.71666L6.72331 18.1546ZM6.58455 17.8349L7.34424 17.1846L7.34424 17.1846L6.58455 17.8349ZM6.19062 14.0634L7.18398 14.1785L6.19062 14.0634ZM15.0557 7.05819L14.938 8.05124L15.0557 7.05819ZM20.867 9.35782C19.9562 9.11535 18.9909 9 18 9V11C18.8372 11 19.6278 11.0976 20.3526 11.2905L20.867 9.35782ZM18 9C13.0294 9 9 13.0294 9 18H11C11 14.134 14.134 11 18 11V9ZM9 18C9 19.8569 9.56344 21.5852 10.5288 23.0196L12.188 21.9029C11.4378 20.7882 11 19.4467 11 18H9ZM11.7529 21.5423C11.5924 21.4734 11.4526 21.4003 11.3382 21.3251L10.2403 22.9968C10.4754 23.1513 10.7241 23.2772 10.964 23.3801L11.7529 21.5423ZM11.3382 21.3251C11.0027 21.1048 10.8616 20.9244 10.722 20.7477L9.15275 21.9877C9.34234 22.2276 9.64026 22.6028 10.2403 22.9968L11.3382 21.3251ZM10.722 20.7477C10.5806 20.5688 10.2393 20.0818 9.53243 19.998L9.29703 21.9841C9.27425 21.9814 9.23379 21.9734 9.18505 21.9526C9.13593 21.9316 9.09874 21.9063 9.07555 21.8874C9.05576 21.8712 9.05147 21.864 9.06761 21.8825C9.07524 21.8912 9.08554 21.9035 9.10025 21.9217C9.11531 21.9403 9.13145 21.9607 9.15275 21.9877L10.722 20.7477ZM9.53243 19.998C9.21007 19.9598 8.92711 20.0571 8.79801 20.1042C8.64214 20.1611 8.47643 20.2387 8.35218 20.2963L9.19274 22.1111C9.26267 22.0787 9.31933 22.0525 9.37122 22.0295C9.42303 22.0067 9.4589 21.9921 9.48408 21.9829C9.51085 21.9731 9.50996 21.9752 9.48953 21.9793C9.47804 21.9817 9.45602 21.9855 9.4255 21.9877C9.39503 21.9898 9.35099 21.9905 9.29703 21.9841L9.53243 19.998ZM8.35218 20.2963C7.9999 20.4594 7.74944 20.566 7.52284 20.5908C7.42649 20.6013 7.35869 20.5928 7.30593 20.5759C7.2566 20.56 7.1823 20.5247 7.08536 20.4277L5.67071 21.8415C6.315 22.4862 7.06349 22.6529 7.74019 22.5789C8.34591 22.5127 8.89026 22.2512 9.19274 22.1111L8.35218 20.2963ZM7.08536 20.4277C6.98489 20.3272 6.95773 20.2583 6.94794 20.2238C6.93711 20.1857 6.93128 20.1304 6.94778 20.0412C6.98811 19.8231 7.11851 19.5786 7.32105 19.2293L5.59086 18.2261C5.4205 18.5199 5.095 19.0616 4.98111 19.6776C4.85103 20.3812 4.9957 21.1661 5.67071 21.8415L7.08536 20.4277ZM7.32104 19.2293C7.38449 19.1199 7.46559 18.9809 7.53085 18.8492C7.58801 18.7338 7.68763 18.5202 7.71666 18.2697L5.72995 18.0395C5.73766 17.9729 5.75247 17.9328 5.75353 17.9299C5.75543 17.9246 5.75254 17.9335 5.7388 17.9612C5.72551 17.988 5.70699 18.0227 5.68099 18.0691C5.65491 18.1156 5.62583 18.1658 5.59087 18.2261L7.32104 19.2293ZM7.71666 18.2697C7.74732 18.005 7.70037 17.753 7.58435 17.5268C7.49484 17.3522 7.36934 17.2139 7.34424 17.1846L5.82487 18.4852C5.85195 18.5168 5.85503 18.5208 5.85456 18.5202C5.85188 18.5167 5.82937 18.4875 5.80465 18.4393C5.77776 18.3868 5.75169 18.3188 5.73722 18.2385C5.72291 18.1592 5.72405 18.0905 5.72995 18.0395L7.71666 18.2697ZM7.34424 17.1846C7.28753 17.1183 7.26994 17.0957 7.2486 17.0561C7.22624 17.0146 7.18359 16.9213 7.1459 16.7341C7.06676 16.341 7.02029 15.5913 7.18398 14.1785L5.19727 13.9484C5.02305 15.452 5.04648 16.4396 5.18524 17.1289C5.25651 17.4829 5.35982 17.7671 5.48794 18.0048C5.61709 18.2445 5.75451 18.403 5.82487 18.4852L7.34424 17.1846ZM7.18398 14.1785C7.63481 10.2874 11.0953 7.59579 14.938 8.05124L15.1734 6.06514C10.241 5.48054 5.77654 8.94866 5.19727 13.9484L7.18398 14.1785ZM14.938 8.05124C16.9644 8.29141 18.6875 9.37358 19.7997 10.9104L21.4199 9.7379C19.9943 7.76799 17.7785 6.3739 15.1734 6.06514L14.938 8.05124Z" fill="white" mask="url(#path-1-inside-1_1269_6321)"/>
<path d="M18 25.5C18 25.5 17.9999 25.5 17.9999 25.5C17.9998 25.5 17.9998 25.5 17.9998 25.5C13.8577 25.4999 10.5 22.1421 10.5 18C10.5 13.8579 13.8579 10.5 18 10.5C20.1198 10.5 21.9868 11.0965 23.319 12.3035C24.6429 13.5029 25.4972 15.3582 25.5 18.0005C25.5 19.985 25.2463 20.6042 25.084 20.8476C25.0439 20.9078 25.0033 20.9542 24.9571 21.0019C24.9491 21.0102 24.9377 21.0216 24.9241 21.0352C24.8826 21.0768 24.8211 21.1384 24.7766 21.1902C24.7015 21.2779 24.6254 21.3883 24.5724 21.5361C24.5207 21.68 24.5 21.8338 24.5 22C24.5 22.2859 24.5354 22.5954 24.5748 22.8873C24.589 22.9921 24.6035 23.0935 24.6176 23.1926C24.6447 23.3819 24.6705 23.5626 24.6906 23.7427C24.7208 24.0146 24.7314 24.2374 24.7136 24.4095C24.7 24.5406 24.6738 24.6033 24.6582 24.63C24.6356 24.6352 24.5713 24.6468 24.4346 24.6347C24.2216 24.616 23.9489 24.5502 23.6437 24.4586C23.442 24.3981 23.2474 24.3332 23.0576 24.2699C22.9583 24.2368 22.8603 24.2041 22.7633 24.1727C22.628 24.1289 22.4947 24.0879 22.3754 24.0575C22.2654 24.0294 22.1286 24 22 24C21.5402 24 21.2819 24.2599 21.1078 24.435C21.0996 24.4432 21.0917 24.4512 21.0839 24.4589L21.082 24.4609C20.9092 24.6337 20.7038 24.8391 20.2764 25.0528C19.8525 25.2647 19.2943 25.3812 18.813 25.4414C18.5778 25.4708 18.3717 25.4855 18.225 25.4928C18.1519 25.4965 18.0939 25.4983 18.055 25.4992C18.0356 25.4996 18.021 25.4998 18.0117 25.4999L18.0017 25.5L18 25.5Z" fill="#323232" stroke="#323232"/>
<path d="M15 18H22" stroke="white" stroke-linecap="round"/>
<path d="M15 20H19" stroke="white" stroke-linecap="round"/>
</svg>
