<svg width="32" height="32" viewBox="0 0 32 32" fill="none" xmlns="http://www.w3.org/2000/svg">
<rect width="32" height="32" fill="white"/>
<path fill-rule="evenodd" clip-rule="evenodd" d="M13 7.5C13.2761 7.5 13.5 7.72386 13.5 8V9H19.5V8C19.5 7.72386 19.7239 7.5 20 7.5C20.2761 7.5 20.5 7.72386 20.5 8V9H22C23.6569 9 25 10.3431 25 12V15.5V16.5V23C25 24.6569 23.6569 26 22 26H11C9.34315 26 8 24.6569 8 23V12C8 10.3431 9.34315 9 11 9H12.5V8C12.5 7.72386 12.7239 7.5 13 7.5Z" fill="#323232"/>
<line x1="8" y1="15.5" x2="25" y2="15.5" stroke="white"/>
</svg>
