<svg width="111" height="32" viewBox="0 0 111 32" fill="none" xmlns="http://www.w3.org/2000/svg">
<g clip-path="url(#clip0_2066_5430)">
<path d="M77.6807 5.70796H80.4877V7.49203H78.4717V8.45795H77.6947V6.91109H79.7107V6.33015H77.6842V5.7114L77.6807 5.70796ZM77.6947 8.10734H78.2127C78.6012 8.10734 78.9582 8.1039 79.2767 8.09359C79.5952 8.08671 79.8997 8.06609 80.1902 8.04203C80.4807 8.01796 80.7782 7.98015 81.0792 7.93203L81.1667 8.55077C80.8552 8.60233 80.5507 8.64358 80.2532 8.66764C79.9557 8.69514 79.6407 8.71233 79.3117 8.7192C78.9827 8.72952 78.6187 8.73295 78.2127 8.73295H77.6947V8.10734ZM80.4002 9.12483C81.0442 9.12483 81.5517 9.22108 81.9227 9.41358C82.2937 9.60608 82.4827 9.88108 82.4827 10.2351C82.4827 10.5892 82.2972 10.8676 81.9227 11.0636C81.5517 11.2595 81.0442 11.3558 80.4002 11.3558C79.7562 11.3558 79.2452 11.2595 78.8742 11.0636C78.5032 10.8676 78.3177 10.5926 78.3177 10.2351C78.3177 9.87764 78.5032 9.60952 78.8742 9.41702C79.2452 9.22452 79.7527 9.12483 80.4002 9.12483ZM80.3967 9.72639C80.1167 9.72639 79.8822 9.74702 79.6897 9.78483C79.4972 9.82264 79.3502 9.88108 79.2522 9.95327C79.1507 10.0289 79.1017 10.1217 79.1017 10.2351C79.1017 10.3486 79.1507 10.4483 79.2522 10.5273C79.3537 10.603 79.4972 10.6614 79.6897 10.6958C79.8822 10.7336 80.1202 10.7508 80.3967 10.7508C80.6732 10.7508 80.9112 10.7336 81.1037 10.6958C81.2962 10.658 81.4432 10.603 81.5412 10.5273C81.6392 10.4517 81.6917 10.3555 81.6917 10.2351C81.6917 10.1148 81.6427 10.0289 81.5412 9.95327C81.4397 9.88108 81.2962 9.82264 81.1037 9.78483C80.9112 9.74702 80.6732 9.72639 80.3967 9.72639ZM81.6462 5.35046H82.4442V9.00795H81.6462V5.35046Z" fill="white"/>
<path d="M85.8355 5.93828H86.602C86.602 6.39203 86.5635 6.82859 86.483 7.24796C86.4025 7.66734 86.266 8.06953 86.0665 8.45108C85.8705 8.83264 85.594 9.1867 85.2405 9.52014C84.887 9.85014 84.439 10.1561 83.893 10.4345L83.4625 9.83983C83.914 9.60952 84.2955 9.35858 84.6 9.08702C84.9045 8.81545 85.1495 8.5267 85.3315 8.2139C85.5135 7.90109 85.643 7.56765 85.72 7.20328C85.797 6.84234 85.8355 6.45046 85.8355 6.02765V5.93484V5.93828ZM85.881 7.41296V8.00765L83.599 8.21046L83.494 7.55734L85.881 7.41296ZM83.8125 5.93828H86.3115V6.56046H83.8125V5.93828ZM86.5845 7.68109H88.2085V8.31359H86.5845V7.68109ZM87.7955 5.35046H88.5865V11.3592H87.7955V5.35046Z" fill="white"/>
<path d="M89.9375 5.86625H92.811V8.13844H90.7495V9.55469H89.9515V7.52313H92.006V6.49188H89.9375V5.86625ZM89.9515 9.31406H90.4835C90.844 9.31406 91.1835 9.30719 91.5055 9.29688C91.8275 9.28656 92.146 9.26594 92.461 9.235C92.776 9.20406 93.098 9.16281 93.4305 9.11125L93.511 9.73688C93 9.82281 92.5065 9.88125 92.027 9.90875C91.5475 9.93625 91.033 9.95 90.4835 9.95H89.9515V9.31063V9.31406ZM93.896 5.34375H94.687V11.3663H93.896V5.34375Z" fill="white"/>
<path d="M97.3925 5.77344C97.697 5.77344 97.97 5.85938 98.2045 6.03469C98.439 6.21 98.6245 6.45406 98.7575 6.77375C98.8905 7.09 98.957 7.46812 98.957 7.90469C98.957 8.34125 98.8905 8.71937 98.7575 9.03906C98.6245 9.35875 98.439 9.60625 98.2045 9.78156C97.97 9.95687 97.7005 10.0428 97.3925 10.0428C97.0845 10.0428 96.822 9.95687 96.5875 9.78156C96.353 9.60625 96.1675 9.35875 96.031 9.03906C95.8945 8.71937 95.828 8.34125 95.828 7.90469C95.828 7.46812 95.8945 7.09344 96.031 6.77375C96.1675 6.4575 96.353 6.21 96.5875 6.03469C96.822 5.85938 97.0915 5.77344 97.3925 5.77344ZM97.3925 6.48156C97.2315 6.48156 97.0915 6.53656 96.969 6.64656C96.8465 6.75656 96.752 6.91812 96.6855 7.13125C96.619 7.34437 96.584 7.60219 96.584 7.90812C96.584 8.21406 96.6155 8.47188 96.6855 8.685C96.752 8.89813 96.8465 9.06313 96.969 9.17313C97.0915 9.28656 97.2315 9.34156 97.3925 9.34156C97.5535 9.34156 97.7005 9.28656 97.823 9.17313C97.9455 9.05969 98.04 8.89813 98.1065 8.685C98.173 8.47188 98.2045 8.21406 98.2045 7.90812C98.2045 7.60219 98.173 7.34437 98.1065 7.13125C98.04 6.91812 97.9455 6.75656 97.823 6.64656C97.7005 6.53656 97.557 6.48156 97.3925 6.48156ZM98.7225 7.54375H100.385V8.1625H98.7225V7.54375ZM100.053 5.34375H100.837V11.3663H100.053V5.34375Z" fill="white"/>
<path d="M25.1 14.4255H22.3V26.113H25.1V14.4255Z" fill="white"/>
<path d="M15.3 23.363V14.4255H12.5V26.113H12.85H15.3H20.2V23.363H15.3Z" fill="white"/>
<path d="M35.6 14.4255V21.8608L30.7 14.4255H27.9V26.113H30.7V18.6743L35.6 26.113H38.4V14.4255H35.6Z" fill="white"/>
<path d="M51.7 26.113L46.933 19.4202L50.65 14.4255H47.15L44 18.7568V14.4255H41.2V26.113H44V23.363L45.1444 21.823L48.2 26.113H51.7Z" fill="white"/>
<path d="M60.8001 16.488V17.4402C60.8001 17.7668 60.4081 17.9283 60.1595 17.7083C59.3021 16.9487 58.1786 16.488 56.95 16.488C54.2445 16.488 52.05 18.719 52.05 21.4724C52.05 24.2258 54.2445 26.4568 56.95 26.4568C58.1786 26.4568 59.2986 25.9962 60.1595 25.2365C60.4081 25.0165 60.8001 25.178 60.8001 25.5046V26.113H62.9001V16.488H60.8001ZM56.95 24.0505C55.55 24.0505 54.4161 22.8955 54.4161 21.4724C54.4161 20.0493 55.55 18.8943 56.95 18.8943C58.3501 18.8943 59.4841 20.0493 59.4841 21.4724C59.4841 22.8955 58.3501 24.0505 56.95 24.0505Z" fill="white"/>
<path d="M80.4768 23.2152C80.0498 23.7549 79.4268 24.0987 78.7268 24.0987C77.5788 24.0987 76.6303 23.1774 76.4343 21.964H81.0193C81.0193 21.964 81.0193 21.9674 81.0193 21.9708H83.1648C83.1893 21.7508 83.2103 21.5274 83.2103 21.3005C83.2103 18.4543 81.0858 16.1443 78.4678 16.1443C75.8498 16.1443 73.7253 18.4543 73.7253 21.3005C73.7253 24.1468 75.8498 26.4568 78.4678 26.4568C79.9518 26.4568 81.2748 25.7143 82.1428 24.5559L80.4733 23.2187L80.4768 23.2152ZM78.4643 18.2893C79.5353 18.2893 80.4103 19.104 80.4908 20.1352H76.4343C76.5148 19.104 77.3898 18.2893 78.4608 18.2893H78.4643Z" fill="white"/>
<path d="M90.6375 23.2152C90.2105 23.7549 89.5875 24.0987 88.8875 24.0987C87.7395 24.0987 86.791 23.1774 86.595 21.964H91.18C91.18 21.964 91.18 21.9674 91.18 21.9708H93.3255C93.35 21.7508 93.371 21.5274 93.371 21.3005C93.371 18.4543 91.2465 16.1443 88.6285 16.1443C86.0105 16.1443 83.886 18.4543 83.886 21.3005C83.886 24.1468 86.0105 26.4568 88.6285 26.4568C90.1125 26.4568 91.4355 25.7143 92.3035 24.5559L90.634 23.2187L90.6375 23.2152ZM88.625 18.2893C89.696 18.2893 90.571 19.104 90.6515 20.1352H86.595C86.6755 19.104 87.5505 18.2893 88.6215 18.2893H88.625Z" fill="white"/>
<path d="M97.3435 23.2565V21.1424C97.3435 20.754 97.431 20.3655 97.6375 20.0355C97.844 19.7055 98.2465 19.1796 99.139 19.0524C100.602 18.8462 101.543 20.2693 101.543 20.2693L103.006 18.4852C102.345 17.4884 101.232 16.8318 99.9685 16.8318C98.9395 16.8318 98.012 17.2684 97.3435 17.9696V16.488H94.5435V26.113H97.3435V23.2565Z" fill="white"/>
<path d="M67.5935 23.2565V21.1424C67.5935 20.754 67.681 20.3655 67.8875 20.0355C68.094 19.7055 68.4965 19.1796 69.389 19.0524C70.852 18.8462 71.7935 20.2693 71.7935 20.2693L73.2565 18.4852C72.595 17.4884 71.482 16.8318 70.2185 16.8318C69.1895 16.8318 68.262 17.2684 67.5935 17.9696V16.488H64.7935V26.113H67.5935V23.2565Z" fill="white"/>
</g>
<defs>
<clipPath id="clip0_2066_5430">
<rect width="91" height="22" fill="white" transform="translate(12.5 5)"/>
</clipPath>
</defs>
</svg>
