<svg width="144" height="144" viewBox="0 0 144 144" fill="none" xmlns="http://www.w3.org/2000/svg">
<mask id="mask0_1269_6388" style="mask-type:luminance" maskUnits="userSpaceOnUse" x="6" y="6" width="132" height="132">
<path d="M72.0011 132.001C79.8819 132.011 87.6869 130.463 94.9677 127.448C102.248 124.432 108.862 120.007 114.427 114.427C120.007 108.862 124.431 102.249 127.447 94.9678C130.463 87.687 132.011 79.882 132.001 72.0013C132.011 64.1205 130.463 56.3156 127.447 49.0347C124.431 41.7539 120.007 35.1408 114.427 29.5753C108.862 23.9957 102.248 19.5709 94.9677 16.555C87.6869 13.5391 79.8819 11.9915 72.0011 12.0013C64.1204 11.9915 56.3154 13.5391 49.0346 16.555C41.7538 19.5709 35.1407 23.9957 29.5751 29.5753C23.9956 35.1408 19.5708 41.7539 16.5549 49.0347C13.539 56.3156 11.9914 64.1205 12.0011 72.0013C11.9914 79.882 13.539 87.687 16.5549 94.9678C19.5708 102.249 23.9956 108.862 29.5751 114.427C35.1407 120.007 41.7538 124.432 49.0346 127.448C56.3154 130.463 64.1204 132.011 72.0011 132.001Z" fill="white" stroke="white" stroke-width="10.5833" stroke-linejoin="round"/>
<path d="M48.0011 72.0012L66.0011 90.0012L102.001 54.0012" stroke="black" stroke-width="10.5833" stroke-linecap="round" stroke-linejoin="round"/>
</mask>
<g mask="url(#mask0_1269_6388)">
<path d="M0.000366211 0.000488281H144V144H0.000366211V0.000488281Z" fill="#01A0FE"/>
</g>
</svg>
