<svg width="48" height="48" viewBox="0 0 48 48" fill="none" xmlns="http://www.w3.org/2000/svg">
<path d="M9.82265 6H34.5005C35.3287 6 36 6.67495 36 7.50759V38.4924C36 39.3251 35.3287 40 34.5005 40H9.82265C7.15948 40 5 37.8254 5 35.1514V10.8486C5 8.17108 7.16293 6 9.82265 6Z" fill="url(#paint0_linear_1269_6564)"/>
<path d="M9.05114 31H36V39H9.05114C6.81414 39 5 37.2088 5 35C5 32.7914 6.81414 31 9.05114 31Z" fill="#DEC35A"/>
<path d="M9.62046 33H36V38H9.62046C8.17392 38 7 36.8799 7 35.5001C7 34.1201 8.17392 33 9.62046 33Z" fill="#EEEFF9"/>
<path d="M34.5011 6H12.4989C11.671 6 11 6.65265 11 7.45779V29.5422C11 30.3473 11.671 31 12.4989 31H34.5011C35.329 31 36 30.3473 36 29.5422V7.45779C36 6.65265 35.329 6 34.5011 6Z" fill="#F3DB43"/>
<path d="M29.25 10H15.75C15.3359 10 15 10.3199 15 10.7143V14.2857C15 14.6801 15.3359 15 15.75 15H29.25C29.6642 15 30 14.6801 30 14.2857V10.7143C30 10.3199 29.6642 10 29.25 10Z" fill="#FFEFA9"/>
<path d="M18 43L14.9999 40.5374L12 43V35H18V43Z" fill="url(#paint1_linear_1269_6564)"/>
<path d="M27.0723 29.664L27.0712 29.6621L24.7039 28.0777C24.4058 27.8782 24 28.086 24 28.4383V39.3029C24 40.7936 25.2387 42 26.7695 42H40.2305C41.7613 42 43 40.7936 43 39.3029V32.3632C43 30.8724 41.7613 29.6662 40.2305 29.6662H27.0745L27.0723 29.664Z" fill="url(#paint2_linear_1269_6564)"/>
<path d="M37 38.866L35.7483 38.7899C36.2449 38.1379 36.5101 37.1946 36.5101 35.9429C36.5101 33.2934 35.3255 32 33.255 32C31.1846 32 30 33.29 30 35.9429C30 38.5956 31.1846 39.8856 33.255 39.8856C33.5201 39.8856 33.7685 39.8648 34 39.8232L36.9361 40L37 38.866ZM31.349 35.9429C31.349 34.1742 32.0402 33.3524 33.2517 33.3524C34.4631 33.3524 35.1543 34.1742 35.1543 35.9429C35.1543 37.7114 34.4631 38.5332 33.2517 38.5332C32.0402 38.5332 31.349 37.7114 31.349 35.9429Z" fill="white"/>
<defs>
<linearGradient id="paint0_linear_1269_6564" x1="10.9981" y1="23.0001" x2="5" y2="23.0001" gradientUnits="userSpaceOnUse">
<stop stop-color="#F8CD30"/>
<stop offset="1" stop-color="#F8C218"/>
</linearGradient>
<linearGradient id="paint1_linear_1269_6564" x1="14.9999" y1="35" x2="14.9999" y2="43" gradientUnits="userSpaceOnUse">
<stop stop-color="#777CF3"/>
<stop offset="1" stop-color="#A0A6F2"/>
</linearGradient>
<linearGradient id="paint2_linear_1269_6564" x1="33.5" y1="27.6065" x2="33.5" y2="42" gradientUnits="userSpaceOnUse">
<stop stop-color="#A0A6F2"/>
<stop offset="1" stop-color="#777CF3"/>
</linearGradient>
</defs>
</svg>
