<svg width="24" height="24" viewBox="0 0 24 24" fill="none" xmlns="http://www.w3.org/2000/svg">
<path d="M11.5 8C12.3284 8 13 7.32841 13 6.50005C13 5.67158 12.3284 5 11.5 5C10.6716 5 10 5.67158 10 6.50005C10 7.32841 10.6716 8 11.5 8Z" fill="#202020"/>
<path d="M11.5 13C12.3284 13 13 12.3284 13 11.5C13 10.6716 12.3284 10 11.5 10C10.6716 10 10 10.6716 10 11.5C10 12.3284 10.6716 13 11.5 13Z" fill="#202020"/>
<path d="M11.5 19C12.3284 19 13 18.3285 13 17.5C13 16.6716 12.3284 16 11.5 16C10.6716 16 10 16.6716 10 17.5C10 18.3285 10.6716 19 11.5 19Z" fill="#202020"/>
</svg>
