<svg width="36" height="36" viewBox="0 0 36 36" fill="none" xmlns="http://www.w3.org/2000/svg">
<path d="M17.0001 12C18.1046 12 19 11.1046 19 10.0001C19 8.89544 18.1046 8 17.0001 8C15.8954 8 15 8.89544 15 10.0001C15 11.1046 15.8954 12 17.0001 12Z" fill="#202020"/>
<path d="M17.0001 20C18.1046 20 19 19.1046 19 18.0001C19 16.8954 18.1046 16 17.0001 16C15.8954 16 15 16.8954 15 18.0001C15 19.1046 15.8954 20 17.0001 20Z" fill="#202020"/>
<path d="M17.0001 28C18.1046 28 19 27.1047 19 26.0001C19 24.8954 18.1046 24 17.0001 24C15.8954 24 15 24.8954 15 26.0001C15 27.1047 15.8954 28 17.0001 28Z" fill="#202020"/>
</svg>
