<svg width="12" height="12" viewBox="0 0 12 12" fill="none" xmlns="http://www.w3.org/2000/svg">
<path d="M6.5 3C4.56701 3 3 4.56701 3 6.5C3 7.16 3.18242 7.7771 3.5 8.304L3.5 8C3.5 7.72385 3.72386 7.5 4 7.5C4.27614 7.5 4.5 7.72385 4.5 8L4.5 9.5C4.5 9.77615 4.27614 10 4 10C3.5 10 3 10 2.5 10C2.22386 10 2 9.77615 2 9.5C2 9.22385 2.22386 9 2.5 9L2.75788 9C2.2794 8.2851 2 7.425 2 6.5C2 4.01472 4.01472 2 6.5 2C8.9853 2 11 4.01472 11 6.5C11 8.9853 8.9853 11 6.5 11C6.30995 11 6.1224 10.9882 5.93815 10.9652C5.6641 10.9311 5.46968 10.6812 5.50385 10.4072C5.538 10.1331 5.78785 9.93875 6.06185 9.9729C6.2052 9.99075 6.3514 10 6.5 10C8.433 10 10 8.433 10 6.5C10 4.567 8.433 3 6.5 3Z" fill="#202020"/>
</svg>
