<svg width="36" height="36" viewBox="0 0 36 36" fill="none" xmlns="http://www.w3.org/2000/svg">
<path d="M13.997 21.9922C13.2463 21.9922 12.4957 21.8678 11.7683 21.6229L11.7099 21.6035H7.81271C7.57935 21.6035 7.38877 21.4129 7.38877 21.1796V17.284L7.36932 17.2258C6.96871 16.04 6.89481 14.8192 7.14373 13.5985C7.76604 10.5543 10.3564 8.26048 13.4446 8.02333C13.6313 8.00778 13.818 8 14.0008 8C15.9456 8 17.8164 8.81644 19.1387 10.2471C20.4767 11.6934 21.1302 13.579 20.9785 15.5579C20.7413 18.6448 18.4464 21.234 15.401 21.8561C14.9381 21.9494 14.4676 22 14.0008 22L13.997 21.9922Z" fill="#FFAE16"/>
<path d="M14.5004 8V8.78948C16.3636 8.78948 18.1597 9.575 19.427 10.9408C20.7098 12.3264 21.3376 14.1381 21.1915 16.0329C20.9625 18.9895 18.7637 21.4723 15.8425 22.0723C15.3965 22.1632 14.9464 22.2105 14.5004 22.2105C13.7819 22.2105 13.0634 22.0921 12.3647 21.8552L12.2424 21.8158H8.21972C8.19999 21.8158 8.1842 21.7999 8.1842 21.7802V17.7579L8.14472 17.6356C7.7618 16.4948 7.69075 15.3263 7.9276 14.1579C8.52369 11.2368 11.0067 9.03815 13.9674 8.80922C14.1451 8.79737 14.3266 8.78948 14.5042 8.78948V8M14.5004 8C14.303 8 14.1056 8.0079 13.9042 8.02369C10.6001 8.28026 7.81707 10.7513 7.15388 14C6.86965 15.3816 6.99598 16.696 7.39469 17.8882V21.7802C7.39469 22.2382 7.76575 22.6053 8.21972 22.6053H12.112C12.8621 22.8579 13.6635 23 14.5004 23C14.9899 23 15.4912 22.9526 16.0004 22.846C19.2492 22.1829 21.7205 19.4 21.9771 16.096C22.3166 11.6829 18.8387 8 14.5004 8Z" fill="#202020"/>
<path d="M19.999 28C19.4656 28 18.9278 27.9467 18.3988 27.8355C14.9183 27.1247 12.2957 24.1655 12.0246 20.6376C11.8513 18.376 12.598 16.2211 14.1271 14.5682C15.6385 12.9375 17.7765 12 19.999 12C20.208 12 20.4213 12.0089 20.6347 12.0267C24.1641 12.2977 27.1245 14.9192 27.8357 18.3982C28.1202 19.7934 28.0358 21.1886 27.5779 22.5437L27.5557 22.6103V26.9469C27.5557 27.2801 27.2845 27.5513 26.9511 27.5513H22.6127L22.5461 27.5735C21.7148 27.8533 20.857 27.9955 19.999 27.9955V28Z" fill="#F3DB43"/>
<path d="M19.4976 11.899C19.6989 11.899 19.9046 11.908 20.1059 11.9214C23.4559 12.1807 26.2692 14.6719 26.949 17.9816C27.2219 19.3055 27.1369 20.6338 26.703 21.9219L26.6583 22.0606V26.4972C26.6583 26.5866 26.5868 26.6582 26.4972 26.6582H22.0605L21.9218 26.703C21.1301 26.9669 20.3161 27.1055 19.5022 27.1055C18.9966 27.1055 18.4868 27.0517 17.9814 26.949C14.6717 26.2736 12.1804 23.4604 11.921 20.106C11.7556 17.9547 12.4667 15.9063 13.9203 14.3365C15.356 12.7845 17.391 11.899 19.5022 11.899M19.4976 11.0045C14.5822 11.0045 10.6374 15.1773 11.0265 20.1776C11.3172 23.9211 14.1171 27.0742 17.7981 27.8256C18.3751 27.9418 18.943 28 19.4976 28C20.4458 28 21.3538 27.839 22.2035 27.5527H26.4972C27.0787 27.5527 27.5529 27.0831 27.5529 26.4972V22.2036C28.0046 20.8529 28.1477 19.3636 27.8256 17.7982C27.0742 14.1174 23.921 11.3176 20.1775 11.0269C19.9493 11.009 19.7257 11 19.5022 11L19.4976 11.0045Z" fill="#202020"/>
<path d="M16 19H24" stroke="#202020" stroke-miterlimit="10" stroke-linecap="round"/>
<path d="M16 21H21" stroke="#202020" stroke-miterlimit="10" stroke-linecap="round"/>
</svg>
