<svg width="19" height="15" viewBox="0 0 19 15" fill="none" xmlns="http://www.w3.org/2000/svg">
<circle cx="7.5" cy="7.5" r="7.5" fill="#01A0FE"/>
<path d="M10.4762 5.6829H9.31578V4.83421C9.31578 3.94287 8.60419 3.22217 7.72744 3.22217C7.3116 3.22217 6.97532 3.56347 6.97532 3.98401V5.11153C6.97532 5.25932 6.90477 5.39798 6.78617 5.48483C6.44839 5.73471 6.26374 6.21619 6.16766 6.58035C6.08359 6.40969 5.91094 6.29237 5.70978 6.29237H3.73565C3.45192 6.29237 3.22223 6.5255 3.22223 6.81347V10.6455C3.22223 10.9335 3.45192 11.1666 3.73565 11.1666H5.70978C5.88993 11.1666 6.04756 11.0721 6.13914 10.9289C6.2202 11.0706 6.37033 11.1666 6.54297 11.1666H10.1084C11.1367 10.6028 11.7778 9.51343 11.7778 8.32801V7.00393C11.7778 6.27409 11.1938 5.68138 10.4747 5.68138L10.4762 5.6829ZM6.52495 9.64446C6.52495 9.81209 6.38984 9.94918 6.2247 9.94918C6.05957 9.94918 5.92446 9.81209 5.92446 9.64446V7.66368C5.92446 7.49605 6.05957 7.35895 6.2247 7.35895C6.38984 7.35895 6.52495 7.49605 6.52495 7.66368V9.64446Z" fill="white"/>
</svg>
