<svg width="48" height="48" viewBox="0 0 48 48" fill="none" xmlns="http://www.w3.org/2000/svg">
<path fill-rule="evenodd" clip-rule="evenodd" d="M27.3333 8C28.8061 8 30 9.19391 30 10.6667V22.3333C30 23.8061 28.8061 25 27.3333 25H14.6875L10.4612 29.508C10.2959 29.6844 10 29.5674 10 29.3257V25H6.66667C5.19391 25 4 23.8061 4 22.3333V10.6667C4 9.19391 5.19391 8 6.66667 8H27.3333Z" fill="url(#paint0_linear_1269_6559)"/>
<path fill-rule="evenodd" clip-rule="evenodd" d="M14 17.5C14 18.3284 13.3284 19 12.5 19C11.6716 19 11 18.3284 11 17.5C11 16.6716 11.6716 16 12.5 16C13.3284 16 14 16.6716 14 17.5ZM23 17.5C23 18.3284 22.3284 19 21.5 19C20.6716 19 20 18.3284 20 17.5C20 16.6716 20.6716 16 21.5 16C22.3284 16 23 16.6716 23 17.5ZM17.5 19C18.3284 19 19 18.3284 19 17.5C19 16.6716 18.3284 16 17.5 16C16.6716 16 16 16.6716 16 17.5C16 18.3284 16.6716 19 17.5 19Z" fill="white"/>
<path fill-rule="evenodd" clip-rule="evenodd" d="M19.6667 20C18.1939 20 17 21.1939 17 22.6667V34.3333C17 35.8061 18.1939 37 19.6667 37H32.3125L36.5388 41.508C36.7041 41.6844 37 41.5674 37 41.3257V37H40.3333C41.8061 37 43 35.8061 43 34.3333V22.6667C43 21.1939 41.8061 20 40.3333 20H19.6667Z" fill="url(#paint1_linear_1269_6559)"/>
<path fill-rule="evenodd" clip-rule="evenodd" d="M27 29.5C27 30.3284 26.3284 31 25.5 31C24.6716 31 24 30.3284 24 29.5C24 28.6716 24.6716 28 25.5 28C26.3284 28 27 28.6716 27 29.5ZM36 29.5C36 30.3284 35.3284 31 34.5 31C33.6716 31 33 30.3284 33 29.5C33 28.6716 33.6716 28 34.5 28C35.3284 28 36 28.6716 36 29.5ZM30.5 31C31.3284 31 32 30.3284 32 29.5C32 28.6716 31.3284 28 30.5 28C29.6716 28 29 28.6716 29 29.5C29 30.3284 29.6716 31 30.5 31Z" fill="white"/>
<defs>
<linearGradient id="paint0_linear_1269_6559" x1="17" y1="8" x2="17" y2="29.5145" gradientUnits="userSpaceOnUse">
<stop stop-color="#FDE513"/>
<stop offset="1" stop-color="#FDBE00"/>
</linearGradient>
<linearGradient id="paint1_linear_1269_6559" x1="30" y1="20" x2="30" y2="41.5145" gradientUnits="userSpaceOnUse">
<stop stop-color="#04BAFC"/>
<stop offset="1" stop-color="#0089F3"/>
</linearGradient>
</defs>
</svg>
