<svg width="31" height="30" viewBox="0 0 31 30" fill="none" xmlns="http://www.w3.org/2000/svg">
<rect x="0.5" width="30" height="30" rx="5" fill="#B9B9B9"/>
<path d="M10.8125 5H20.1875C20.9334 5 21.6488 5.29632 22.1762 5.82376C22.7037 6.35121 23 7.06658 23 7.8125V20.9375C23 21.6834 22.7037 22.3988 22.1762 22.9262C21.6488 23.4537 20.9334 23.75 20.1875 23.75H10.8125C10.0666 23.75 9.35121 23.4537 8.82376 22.9262C8.29632 22.3988 8 21.6834 8 20.9375V7.8125C8 7.06658 8.29632 6.35121 8.82376 5.82376C9.35121 5.29632 10.0666 5 10.8125 5ZM11.75 11.5625C11.5014 11.5625 11.2629 11.6613 11.0871 11.8371C10.9113 12.0129 10.8125 12.2514 10.8125 12.5C10.8125 12.7486 10.9113 12.9871 11.0871 13.1629C11.2629 13.3387 11.5014 13.4375 11.75 13.4375H19.25C19.4986 13.4375 19.7371 13.3387 19.9129 13.1629C20.0887 12.9871 20.1875 12.7486 20.1875 12.5C20.1875 12.2514 20.0887 12.0129 19.9129 11.8371C19.7371 11.6613 19.4986 11.5625 19.25 11.5625H11.75ZM11.75 19.0625C11.5014 19.0625 11.2629 19.1613 11.0871 19.3371C10.9113 19.5129 10.8125 19.7514 10.8125 20C10.8125 20.2486 10.9113 20.4871 11.0871 20.6629C11.2629 20.8387 11.5014 20.9375 11.75 20.9375H16.4375C16.6861 20.9375 16.9246 20.8387 17.1004 20.6629C17.2762 20.4871 17.375 20.2486 17.375 20C17.375 19.7514 17.2762 19.5129 17.1004 19.3371C16.9246 19.1613 16.6861 19.0625 16.4375 19.0625H11.75ZM11.75 7.8125C11.5014 7.8125 11.2629 7.91127 11.0871 8.08709C10.9113 8.2629 10.8125 8.50136 10.8125 8.75C10.8125 8.99864 10.9113 9.2371 11.0871 9.41291C11.2629 9.58873 11.5014 9.6875 11.75 9.6875H19.25C19.4986 9.6875 19.7371 9.58873 19.9129 9.41291C20.0887 9.2371 20.1875 8.99864 20.1875 8.75C20.1875 8.50136 20.0887 8.2629 19.9129 8.08709C19.7371 7.91127 19.4986 7.8125 19.25 7.8125H11.75ZM11.75 15.3125C11.5014 15.3125 11.2629 15.4113 11.0871 15.5871C10.9113 15.7629 10.8125 16.0014 10.8125 16.25C10.8125 16.4986 10.9113 16.7371 11.0871 16.9129C11.2629 17.0887 11.5014 17.1875 11.75 17.1875H19.25C19.4986 17.1875 19.7371 17.0887 19.9129 16.9129C20.0887 16.7371 20.1875 16.4986 20.1875 16.25C20.1875 16.0014 20.0887 15.7629 19.9129 15.5871C19.7371 15.4113 19.4986 15.3125 19.25 15.3125H11.75Z" fill="white"/>
</svg>
