<svg width="24" height="24" viewBox="0 0 24 24" fill="none" xmlns="http://www.w3.org/2000/svg">
<path d="M12.9966 13.8575C13.7804 13.3693 14.3839 12.6391 14.7158 11.7774C15.0476 10.9157 15.0898 9.96936 14.8359 9.08153C14.5821 8.19371 14.0459 7.41273 13.3087 6.85674C12.5714 6.30075 11.6731 6 10.7497 6C9.82631 6 8.92802 6.30075 8.19076 6.85674C7.4535 7.41273 6.91737 8.19371 6.6635 9.08153C6.40962 9.96936 6.45181 10.9157 6.78367 11.7774C7.11554 12.6391 7.71903 13.3693 8.50284 13.8575C7.21222 14.28 6.05097 15.0694 5.11722 16.1806C5.03185 16.2822 4.99031 16.4134 5.00174 16.5456C5.01317 16.6777 5.07663 16.7999 5.17815 16.8853C5.27968 16.9707 5.41096 17.0122 5.54312 17.0008C5.67527 16.9894 5.79747 16.9259 5.88284 16.8244C7.13722 15.3269 8.86597 14.5025 10.7466 14.5025C12.6272 14.5025 14.356 15.3269 15.6135 16.8244C15.6988 16.9259 15.821 16.9894 15.9532 17.0008C16.0853 17.0122 16.2166 16.9707 16.3182 16.8853C16.4197 16.7999 16.4831 16.6777 16.4946 16.5456C16.506 16.4134 16.4645 16.2822 16.3791 16.1806C15.4453 15.0694 14.2841 14.28 12.9966 13.8575ZM7.49659 10.2525C7.49659 9.60971 7.6872 8.98136 8.04431 8.4469C8.40143 7.91244 8.90901 7.49588 9.50287 7.24989C10.0967 7.00391 10.7502 6.93955 11.3806 7.06495C12.0111 7.19035 12.5902 7.49988 13.0447 7.9544C13.4992 8.40892 13.8087 8.98802 13.9341 9.61846C14.0595 10.2489 13.9952 10.9024 13.7492 11.4962C13.5032 12.0901 13.0867 12.5977 12.5522 12.9548C12.0177 13.3119 11.3894 13.5025 10.7466 13.5025C9.88494 13.5015 9.05887 13.1588 8.44959 12.5495C7.84031 11.9402 7.49758 11.1141 7.49659 10.2525ZM19.8503 12.3562L17.8503 14.3562C17.8039 14.4027 17.7488 14.4396 17.6881 14.4648C17.6274 14.4899 17.5623 14.5029 17.4966 14.5029C17.4309 14.5029 17.3658 14.4899 17.3051 14.4648C17.2444 14.4396 17.1893 14.4027 17.1428 14.3562L16.1428 13.3562C16.049 13.2624 15.9963 13.1352 15.9963 13.0025C15.9963 12.8698 16.049 12.7426 16.1428 12.6487C16.2367 12.5549 16.3639 12.5022 16.4966 12.5022C16.6293 12.5022 16.7565 12.5549 16.8503 12.6487L17.4966 13.2956L19.1428 11.6487C19.2367 11.5549 19.3639 11.5022 19.4966 11.5022C19.6293 11.5022 19.7565 11.5549 19.8503 11.6487C19.9442 11.7426 19.9969 11.8698 19.9969 12.0025C19.9969 12.1352 19.9442 12.2624 19.8503 12.3562Z" fill="#868686"/>
</svg>
