<svg width="36" height="36" viewBox="0 0 36 36" fill="none" xmlns="http://www.w3.org/2000/svg">
<path d="M27.2973 27.7115C27.6903 28.0996 28.3234 28.0956 28.7115 27.7027C29.0996 27.3097 29.0956 26.6766 28.7027 26.2885L27.2973 27.7115ZM23.1256 16.9641C23.1256 20.2448 20.4245 22.9283 17.0628 22.9283V24.9283C21.5025 24.9283 25.1256 21.3758 25.1256 16.9641H23.1256ZM17.0628 22.9283C13.7011 22.9283 11 20.2448 11 16.9641H9C9 21.3758 12.6232 24.9283 17.0628 24.9283V22.9283ZM11 16.9641C11 13.6835 13.7011 11 17.0628 11V9C12.6232 9 9 12.5524 9 16.9641H11ZM17.0628 11C20.4245 11 23.1256 13.6835 23.1256 16.9641H25.1256C25.1256 12.5524 21.5025 9 17.0628 9V11ZM21.4747 21.9613L27.2973 27.7115L28.7027 26.2885L22.8801 20.5382L21.4747 21.9613Z" fill="#202020"/>
</svg>
