<svg width="24" height="24" viewBox="0 0 24 24" fill="none" xmlns="http://www.w3.org/2000/svg">
<path d="M18.3046 18.7186C18.7015 19.1027 19.3346 19.0923 19.7186 18.6954C20.1027 18.2985 20.0923 17.6654 19.6954 17.2814L18.3046 18.7186ZM16.0073 11.3255C16.0073 13.6837 14.0222 15.651 11.5036 15.651V17.651C15.0642 17.651 18.0073 14.8497 18.0073 11.3255H16.0073ZM11.5036 15.651C8.98508 15.651 7 13.6837 7 11.3255H5C5 14.8497 7.94304 17.651 11.5036 17.651V15.651ZM7 11.3255C7 8.96735 8.98508 7 11.5036 7V5C7.94304 5 5 7.80127 5 11.3255H7ZM11.5036 7C14.0222 7 16.0073 8.96735 16.0073 11.3255H18.0073C18.0073 7.80127 15.0642 5 11.5036 5V7ZM14.7937 15.3214L18.3046 18.7186L19.6954 17.2814L16.1845 13.8841L14.7937 15.3214Z" fill="#202020"/>
</svg>
