<svg width="32" height="32" viewBox="0 0 32 32" fill="none" xmlns="http://www.w3.org/2000/svg">
<rect width="32" height="32" fill="white"/>
<path d="M14.2504 22.4636C14.2504 22.4636 14.2505 22.4636 14.2505 22.4636C14.2505 22.4636 14.2506 22.4636 14.2506 22.4636C18.3645 22.9455 22.0902 20.0013 22.5723 15.8874C23.0544 11.7735 20.1102 8.04759 15.9962 7.5655C11.8799 7.08314 8.16268 9.97343 7.67424 14.1416C7.44393 16.107 7.60515 16.8893 7.74924 17.2249C7.81143 17.3697 7.87359 17.4424 7.94868 17.5303C7.95368 17.5362 7.95874 17.5421 7.96386 17.5481L7.96669 17.5514C8.00598 17.5975 8.08021 17.6847 8.13298 17.7961C8.19656 17.9304 8.22006 18.0758 8.20189 18.2308C8.18138 18.4058 8.11205 18.6644 8.047 18.9069L8.04622 18.9098C8.04122 18.9284 8.03618 18.9472 8.03111 18.9661C7.96429 19.215 7.89141 19.4864 7.83167 19.7576C7.76679 20.0521 7.72303 20.3224 7.71694 20.54C7.71218 20.7097 7.73239 20.7935 7.74293 20.826C7.76801 20.8345 7.83099 20.8516 7.96022 20.8553C8.17398 20.8614 8.45244 20.8278 8.76625 20.7724C8.97357 20.7358 9.1744 20.694 9.37035 20.6532C9.4728 20.6318 9.57391 20.6108 9.67393 20.5909C9.81339 20.5632 9.95054 20.5379 10.0726 20.5216C10.1852 20.5066 10.3244 20.4932 10.4521 20.5082C10.9088 20.5617 11.1351 20.8499 11.2877 21.0441C11.2948 21.0532 11.3017 21.062 11.3085 21.0706L11.3103 21.0728C11.4618 21.2646 11.6418 21.4924 12.0415 21.7544C12.4378 22.0143 12.9787 22.1949 13.4497 22.3107C13.6799 22.3673 13.8829 22.4059 14.0277 22.4302C14.0999 22.4424 14.1573 22.4509 14.1958 22.4563C14.215 22.459 14.2295 22.4609 14.2388 22.4621L14.2487 22.4634L14.2504 22.4636Z" fill="white" stroke="#868686"/>
<path d="M19 25.5C19 25.5 18.9999 25.5 18.9999 25.5C18.9998 25.5 18.9998 25.5 18.9998 25.5C14.8577 25.4999 11.5 22.1421 11.5 18C11.5 13.8579 14.8579 10.5 19 10.5C21.1198 10.5 22.9868 11.0965 24.319 12.3035C25.6429 13.5029 26.4972 15.3582 26.5 18.0005C26.5 19.985 26.2463 20.6042 26.084 20.8476C26.0439 20.9078 26.0033 20.9542 25.9571 21.0019C25.9491 21.0102 25.9377 21.0216 25.9241 21.0352C25.8826 21.0768 25.8211 21.1384 25.7766 21.1902C25.7015 21.2779 25.6254 21.3883 25.5724 21.5361C25.5207 21.68 25.5 21.8338 25.5 22C25.5 22.2859 25.5354 22.5954 25.5748 22.8873C25.589 22.9921 25.6035 23.0935 25.6176 23.1926C25.6447 23.3819 25.6705 23.5626 25.6906 23.7427C25.7208 24.0146 25.7314 24.2374 25.7136 24.4095C25.7 24.5406 25.6738 24.6033 25.6582 24.63C25.6356 24.6352 25.5713 24.6468 25.4346 24.6347C25.2216 24.616 24.9489 24.5502 24.6437 24.4586C24.442 24.3981 24.2474 24.3332 24.0576 24.2699C23.9583 24.2368 23.8603 24.2041 23.7633 24.1727C23.628 24.1289 23.4947 24.0879 23.3754 24.0575C23.2654 24.0294 23.1286 24 23 24C22.5402 24 22.2819 24.2599 22.1078 24.435C22.0996 24.4432 22.0917 24.4512 22.0839 24.4589L22.082 24.4609C21.9092 24.6337 21.7038 24.8391 21.2764 25.0528C20.8525 25.2647 20.2943 25.3812 19.813 25.4414C19.5778 25.4708 19.3717 25.4855 19.225 25.4928C19.1519 25.4965 19.0939 25.4983 19.055 25.4992C19.0356 25.4996 19.021 25.4998 19.0117 25.4999L19.0017 25.5L19 25.5Z" fill="white" stroke="#868686"/>
<path d="M16 18H23" stroke="#868686" stroke-linecap="round"/>
<path d="M16 20H20" stroke="#868686" stroke-linecap="round"/>
</svg>
