<svg width="36" height="36" viewBox="0 0 36 36" fill="none" xmlns="http://www.w3.org/2000/svg">
<path d="M21.2938 8.52505C23.1125 8.52505 24.5938 10.1314 24.5938 12.1038V26.1496L18.9921 23.8722C18.8329 23.8062 18.664 23.7756 18.5 23.7756C18.336 23.7756 18.1671 23.8062 18.0079 23.8722L12.4062 26.1496V12.1038C12.4062 10.1314 13.8875 8.52505 15.7063 8.52505H21.2938ZM21.2938 7H15.7063C13.1046 7 11 9.28759 11 12.1038V27.2121C11 27.6644 11.3421 28 11.7265 28C11.811 28 11.8954 27.9847 11.9844 27.9492L18.5 25.3007L25.0156 27.9492C25.1 27.9847 25.189 28 25.2735 28C25.6579 28 26 27.6594 26 27.2121V12.1038C26 9.2825 23.8906 7 21.2938 7Z" fill="white"/>
</svg>
