<svg width="16" height="16" viewBox="0 0 16 16" fill="none" xmlns="http://www.w3.org/2000/svg">
<path d="M5.875 1C5.44402 1 5.0307 1.1712 4.72595 1.47595C4.42121 1.7807 4.25 2.19402 4.25 2.625V11.625C4.25 11.8384 4.29203 12.0497 4.3737 12.2469C4.45536 12.444 4.57506 12.6232 4.72595 12.774C4.87685 12.9249 5.05599 13.0446 5.25314 13.1263C5.45029 13.208 5.6616 13.25 5.875 13.25H11.875C12.0884 13.25 12.2997 13.208 12.4969 13.1263C12.694 13.0446 12.8732 12.9249 13.024 12.774C13.1749 12.6232 13.2946 12.444 13.3763 12.2469C13.458 12.0497 13.5 11.8384 13.5 11.625V2.625C13.5 2.19402 13.3288 1.7807 13.024 1.47595C12.7193 1.1712 12.306 1 11.875 1H5.875ZM5.25 2.625C5.25 2.28 5.53 2 5.875 2H11.875C12.22 2 12.5 2.28 12.5 2.625V11.625C12.5 11.97 12.22 12.25 11.875 12.25H5.875C5.53 12.25 5.25 11.97 5.25 11.625V2.625ZM3.5 2.8745C2.913 3.1195 2.5 3.699 2.5 4.3745V11.75C2.5 12.1768 2.58406 12.5994 2.74739 12.9937C2.91072 13.388 3.15011 13.7463 3.4519 14.0481C4.0614 14.6576 4.88805 15 5.75 15H10.125C10.4459 15.0001 10.7596 14.9052 11.0267 14.7272C11.2937 14.5493 11.5021 14.2962 11.6255 14H5.75C5.15326 14 4.58097 13.7629 4.15901 13.341C3.73705 12.919 3.5 12.3467 3.5 11.75V2.8745Z" fill="#989898"/>
</svg>
