<svg width="32" height="32" viewBox="0 0 32 32" fill="none" xmlns="http://www.w3.org/2000/svg">
<rect width="32" height="32" fill="white"/>
<path d="M9.44872 17.7949C9.44872 17.5187 9.22486 17.2949 8.94872 17.2949H6.44395C5.99642 17.2949 5.77429 16.752 6.09346 16.4383L15.6495 7.04559C15.844 6.85437 16.1559 6.85438 16.3505 7.04559L25.9065 16.4383C26.2257 16.752 26.0036 17.2949 25.556 17.2949H23.0513C22.7764 17.2949 22.553 17.5168 22.5513 17.7917L22.5062 25.0031C22.5045 25.278 22.2812 25.5 22.0062 25.5H18.5513C18.2751 25.5 18.0513 25.2761 18.0513 25V19.3333C18.0513 19.0572 17.8274 18.8333 17.5513 18.8333H14.5C14.2239 18.8333 14 19.0572 14 19.3333V25C14 25.2761 13.7761 25.5 13.5 25.5H9.94872C9.67258 25.5 9.44872 25.2761 9.44872 25V17.7949Z" stroke="#868686" stroke-linecap="round" stroke-linejoin="round"/>
</svg>
