<svg width="25" height="25" viewBox="0 0 25 25" fill="none" xmlns="http://www.w3.org/2000/svg">
<circle cx="12.5" cy="12.5" r="12" fill="white" stroke="#EDEDED"/>
<circle cx="12.5" cy="12.5" r="7.5" fill="#B9B9B9"/>
<path d="M15.4762 10.6829H14.3158V9.83421C14.3158 8.94287 13.6042 8.22217 12.7274 8.22217C12.3116 8.22217 11.9753 8.56347 11.9753 8.98401V10.1115C11.9753 10.2593 11.9048 10.398 11.7862 10.4848C11.4484 10.7347 11.2637 11.2162 11.1677 11.5803C11.0836 11.4097 10.9109 11.2924 10.7098 11.2924H8.73565C8.45192 11.2924 8.22223 11.5255 8.22223 11.8135V15.6455C8.22223 15.9335 8.45192 16.1666 8.73565 16.1666H10.7098C10.8899 16.1666 11.0476 16.0721 11.1391 15.9289C11.2202 16.0706 11.3703 16.1666 11.543 16.1666H15.1084C16.1367 15.6028 16.7778 14.5134 16.7778 13.328V12.0039C16.7778 11.2741 16.1938 10.6814 15.4747 10.6814L15.4762 10.6829ZM11.525 14.6445C11.525 14.8121 11.3898 14.9492 11.2247 14.9492C11.0596 14.9492 10.9245 14.8121 10.9245 14.6445V12.6637C10.9245 12.4961 11.0596 12.359 11.2247 12.359C11.3898 12.359 11.525 12.4961 11.525 12.6637V14.6445Z" fill="white"/>
</svg>
