<svg width="32" height="32" viewBox="0 0 32 32" fill="none" xmlns="http://www.w3.org/2000/svg">
<rect width="32" height="32" fill="white"/>
<mask id="path-1-outside-1_1269_6286" maskUnits="userSpaceOnUse" x="5" y="7" width="23" height="18" fill="black">
<rect fill="white" x="5" y="7" width="23" height="18"/>
<path fill-rule="evenodd" clip-rule="evenodd" d="M16.5 15C18.433 15 20 13.433 20 11.5C20 9.567 18.433 8 16.5 8C14.567 8 13 9.567 13 11.5C13 13.433 14.567 15 16.5 15ZM6 19.8421V23H11V24H22V23H27V19.8421C27 19.8421 26.6818 17 23.5 17C22.3366 17 21.556 17.38 21.0338 17.8621C20.2654 16.8745 18.902 16 16.5 16C14.098 16 12.7346 16.8745 11.9662 17.8621C11.444 17.38 10.6634 17 9.5 17C6.31818 17 6 19.8421 6 19.8421ZM9.5 16C10.3284 16 11 15.3284 11 14.5C11 13.6716 10.3284 13 9.5 13C8.67157 13 8 13.6716 8 14.5C8 15.3284 8.67157 16 9.5 16ZM25 14.5C25 15.3284 24.3284 16 23.5 16C22.6716 16 22 15.3284 22 14.5C22 13.6716 22.6716 13 23.5 13C24.3284 13 25 13.6716 25 14.5Z"/>
</mask>
<path fill-rule="evenodd" clip-rule="evenodd" d="M16.5 15C18.433 15 20 13.433 20 11.5C20 9.567 18.433 8 16.5 8C14.567 8 13 9.567 13 11.5C13 13.433 14.567 15 16.5 15ZM6 19.8421V23H11V24H22V23H27V19.8421C27 19.8421 26.6818 17 23.5 17C22.3366 17 21.556 17.38 21.0338 17.8621C20.2654 16.8745 18.902 16 16.5 16C14.098 16 12.7346 16.8745 11.9662 17.8621C11.444 17.38 10.6634 17 9.5 17C6.31818 17 6 19.8421 6 19.8421ZM9.5 16C10.3284 16 11 15.3284 11 14.5C11 13.6716 10.3284 13 9.5 13C8.67157 13 8 13.6716 8 14.5C8 15.3284 8.67157 16 9.5 16ZM25 14.5C25 15.3284 24.3284 16 23.5 16C22.6716 16 22 15.3284 22 14.5C22 13.6716 22.6716 13 23.5 13C24.3284 13 25 13.6716 25 14.5Z" fill="#323232"/>
<path d="M6 23H5C5 23.5523 5.44772 24 6 24V23ZM6 19.8421L5.00621 19.7308C5.00207 19.7678 5 19.8049 5 19.8421H6ZM11 23H12C12 22.4477 11.5523 22 11 22V23ZM11 24H10C10 24.5523 10.4477 25 11 25V24ZM22 24V25C22.5523 25 23 24.5523 23 24H22ZM22 23V22C21.4477 22 21 22.4477 21 23H22ZM27 23V24C27.5523 24 28 23.5523 28 23H27ZM27 19.8421H28C28 19.8049 27.9979 19.7678 27.9938 19.7308L27 19.8421ZM21.0338 17.8621L20.2446 18.4762C20.4165 18.6971 20.673 18.8358 20.9519 18.8587C21.2308 18.8817 21.5066 18.7867 21.7122 18.5968L21.0338 17.8621ZM11.9662 17.8621L11.2878 18.5968C11.4934 18.7867 11.7692 18.8817 12.0481 18.8587C12.327 18.8358 12.5835 18.6971 12.7554 18.4762L11.9662 17.8621ZM19 11.5C19 12.8807 17.8807 14 16.5 14V16C18.9853 16 21 13.9853 21 11.5H19ZM16.5 9C17.8807 9 19 10.1193 19 11.5H21C21 9.01472 18.9853 7 16.5 7V9ZM14 11.5C14 10.1193 15.1193 9 16.5 9V7C14.0147 7 12 9.01472 12 11.5H14ZM16.5 14C15.1193 14 14 12.8807 14 11.5H12C12 13.9853 14.0147 16 16.5 16V14ZM7 23V19.8421H5V23H7ZM11 22H6V24H11V22ZM12 24V23H10V24H12ZM22 23H11V25H22V23ZM21 23V24H23V23H21ZM22 24H27V22H22V24ZM28 23V19.8421H26V23H28ZM27 19.8421C27.9938 19.7308 27.9937 19.7303 27.9937 19.7297C27.9936 19.7295 27.9936 19.729 27.9935 19.7286C27.9934 19.7278 27.9933 19.7269 27.9932 19.726C27.993 19.7242 27.9928 19.7222 27.9925 19.7201C27.992 19.7158 27.9914 19.7107 27.9906 19.705C27.9892 19.6936 27.9872 19.6794 27.9847 19.6626C27.9797 19.6289 27.9724 19.5848 27.9622 19.5315C27.9418 19.4253 27.9093 19.2813 27.8588 19.112C27.7586 18.7763 27.5819 18.323 27.2733 17.8635C26.627 16.9013 25.453 16 23.5 16V18C24.7288 18 25.3048 18.5197 25.6131 18.9787C25.7817 19.2297 25.8835 19.4869 25.9424 19.6841C25.9713 19.7812 25.9886 19.8593 25.998 19.9085C26.0027 19.9329 26.0054 19.9498 26.0066 19.9578C26.0072 19.9618 26.0074 19.9636 26.0073 19.9629C26.0073 19.9625 26.0072 19.9616 26.007 19.96C26.0069 19.9592 26.0068 19.9583 26.0066 19.9572C26.0066 19.9566 26.0065 19.956 26.0064 19.9554C26.0064 19.9551 26.0063 19.9546 26.0063 19.9544C26.0063 19.9539 26.0062 19.9534 27 19.8421ZM23.5 16C22.0958 16 21.07 16.4676 20.3555 17.1274L21.7122 18.5968C22.0419 18.2924 22.5773 18 23.5 18V16ZM16.5 17C18.6242 17 19.6838 17.7554 20.2446 18.4762L21.8231 17.248C20.8471 15.9936 19.1797 15 16.5 15V17ZM12.7554 18.4762C13.3162 17.7554 14.3758 17 16.5 17V15C13.8203 15 12.1529 15.9936 11.1769 17.248L12.7554 18.4762ZM9.5 18C10.4227 18 10.9581 18.2924 11.2878 18.5968L12.6445 17.1274C11.93 16.4676 10.9042 16 9.5 16V18ZM6 19.8421C6.99379 19.9534 6.99373 19.9539 6.99367 19.9544C6.99366 19.9546 6.9936 19.9551 6.99356 19.9554C6.99349 19.956 6.99342 19.9566 6.99336 19.9572C6.99323 19.9583 6.99312 19.9592 6.99302 19.96C6.99283 19.9616 6.99271 19.9625 6.99266 19.9629C6.99258 19.9636 6.9928 19.9618 6.99339 19.9578C6.99459 19.9498 6.99727 19.9329 7.00196 19.9085C7.01141 19.8593 7.02866 19.7812 7.05764 19.6841C7.11652 19.4869 7.21831 19.2297 7.38693 18.9787C7.6952 18.5197 8.27116 18 9.5 18V16C7.54703 16 6.37298 16.9013 5.72671 17.8635C5.41805 18.323 5.24144 18.7763 5.14122 19.112C5.09066 19.2813 5.05819 19.4253 5.03781 19.5315C5.02759 19.5848 5.02033 19.6289 5.01531 19.6626C5.0128 19.6794 5.01084 19.6936 5.00936 19.705C5.00861 19.7107 5.00799 19.7158 5.00746 19.7201C5.0072 19.7222 5.00697 19.7242 5.00676 19.726C5.00666 19.7269 5.00656 19.7278 5.00647 19.7286C5.00642 19.729 5.00636 19.7295 5.00633 19.7297C5.00627 19.7303 5.00621 19.7308 6 19.8421ZM10 14.5C10 14.7761 9.77614 15 9.5 15V17C10.8807 17 12 15.8807 12 14.5H10ZM9.5 14C9.77614 14 10 14.2239 10 14.5H12C12 13.1193 10.8807 12 9.5 12V14ZM9 14.5C9 14.2239 9.22386 14 9.5 14V12C8.11929 12 7 13.1193 7 14.5H9ZM9.5 15C9.22386 15 9 14.7761 9 14.5H7C7 15.8807 8.11929 17 9.5 17V15ZM23.5 17C24.8807 17 26 15.8807 26 14.5H24C24 14.7761 23.7761 15 23.5 15V17ZM21 14.5C21 15.8807 22.1193 17 23.5 17V15C23.2239 15 23 14.7761 23 14.5H21ZM23.5 12C22.1193 12 21 13.1193 21 14.5H23C23 14.2239 23.2239 14 23.5 14V12ZM26 14.5C26 13.1193 24.8807 12 23.5 12V14C23.7761 14 24 14.2239 24 14.5H26Z" fill="#323232" mask="url(#path-1-outside-1_1269_6286)"/>
<path d="M22 24.5C22.2761 24.5 22.5 24.2761 22.5 24V20.5C22.5 20.0734 22.3591 18.8357 21.53 17.6904C20.6784 16.5137 19.1469 15.5 16.5 15.5C13.8531 15.5 12.3216 16.5137 11.47 17.6904C10.6409 18.8357 10.5 20.0734 10.5 20.5V24C10.5 24.2761 10.7239 24.5 11 24.5H22Z" fill="#323232" stroke="white" stroke-linecap="round" stroke-linejoin="round"/>
<circle cx="16.5" cy="11.5" r="4" fill="#323232" stroke="#323232"/>
</svg>
