<svg width="12" height="12" viewBox="0 0 12 12" fill="none" xmlns="http://www.w3.org/2000/svg">
<path d="M9.47867 3.78769H8.12233V2.82623C8.12233 1.81645 7.2906 1 6.26583 1C5.77979 1 5.38673 1.38665 5.38673 1.86306V3.14039C5.38673 3.30783 5.30427 3.4649 5.16564 3.56329C4.77084 3.84637 4.55501 4.39183 4.44271 4.80437C4.34445 4.61104 4.14265 4.47813 3.90753 4.47813H1.60011C1.26847 4.47813 1 4.74223 1 5.06847V9.40966C1 9.73591 1.26847 10 1.60011 10H3.90753C4.11809 10 4.30233 9.89296 4.40937 9.73071C4.50413 9.89123 4.67959 10 4.88138 10H9.0488C10.2507 9.36132 11 8.12716 11 6.78424V5.28424C11 4.45742 10.3174 3.78596 9.47693 3.78596L9.47867 3.78769ZM4.86033 8.2756C4.86033 8.4655 4.70241 8.62081 4.50939 8.62081C4.31637 8.62081 4.15845 8.4655 4.15845 8.2756V6.03164C4.15845 5.84174 4.31637 5.68643 4.50939 5.68643C4.70241 5.68643 4.86033 5.84174 4.86033 6.03164V8.2756Z" fill="#B9B9B9"/>
</svg>
