<svg width="30" height="30" viewBox="0 0 30 30" fill="none" xmlns="http://www.w3.org/2000/svg">
<rect width="30" height="30" rx="5" fill="#B9B9B9"/>
<path d="M17.369 7.52266C16.6088 6.70195 15.5471 6.25 14.3752 6.25C13.1971 6.25 12.1319 6.69922 11.3752 7.51484C10.6104 8.33945 10.2377 9.46016 10.3252 10.6703C10.4987 13.0578 12.3155 15 14.3752 15C16.435 15 18.2487 13.0582 18.4248 10.6711C18.5135 9.47187 18.1385 8.35352 17.369 7.52266ZM21.2502 23.75H7.50022C7.32025 23.7523 7.14202 23.7145 6.97849 23.6393C6.81497 23.5641 6.67026 23.4534 6.55491 23.3152C6.301 23.0117 6.19866 22.5973 6.27444 22.1781C6.60413 20.3492 7.63304 18.8129 9.25022 17.7344C10.6869 16.777 12.5069 16.25 14.3752 16.25C16.2436 16.25 18.0635 16.7773 19.5002 17.7344C21.1174 18.8125 22.1463 20.3488 22.476 22.1777C22.5518 22.5969 22.4494 23.0113 22.1955 23.3148C22.0802 23.4531 21.9355 23.5639 21.772 23.6391C21.6085 23.7144 21.4302 23.7523 21.2502 23.75Z" fill="white"/>
</svg>
