<svg width="32" height="32" viewBox="0 0 32 32" fill="none" xmlns="http://www.w3.org/2000/svg">
<rect width="32" height="32" fill="white"/>
<path fill-rule="evenodd" clip-rule="evenodd" d="M13 7.5C13.2761 7.5 13.5 7.72386 13.5 8V9H19.5V8C19.5 7.72386 19.7239 7.5 20 7.5C20.2761 7.5 20.5 7.72386 20.5 8V9H22C23.6569 9 25 10.3431 25 12V15.5V16.5V23C25 24.6569 23.6569 26 22 26H11C9.34315 26 8 24.6569 8 23V12C8 10.3431 9.34315 9 11 9H12.5V8C12.5 7.72386 12.7239 7.5 13 7.5ZM19.5 10V12C19.5 12.2761 19.7239 12.5 20 12.5C20.2761 12.5 20.5 12.2761 20.5 12V10H22C23.1046 10 24 10.8954 24 12V15.5H9V12C9 10.8954 9.89543 10 11 10H12.5V12C12.5 12.2761 12.7239 12.5 13 12.5C13.2761 12.5 13.5 12.2761 13.5 12V10H19.5ZM9 16.5V23C9 24.1046 9.89543 25 11 25H22C23.1046 25 24 24.1046 24 23V16.5H9Z" fill="#868686"/>
</svg>
