<svg width="12" height="12" viewBox="0 0 12 12" fill="none" xmlns="http://www.w3.org/2000/svg">
<path d="M8.30769 1C7.31683 1 6.46731 1.85125 6 3.14922C5.53269 1.85125 4.68317 1 3.69231 1C2.18269 1 1 2.97672 1 5.5C1 8.02328 2.18269 10 3.69231 10C4.68317 10 5.53269 9.14875 6 7.85078C6.46731 9.14875 7.31683 10 8.30769 10C9.81731 10 11 8.02328 11 5.5C11 2.97672 9.81731 1 8.30769 1ZM4.98654 8.23703C4.62644 8.88062 4.15481 9.25 3.69231 9.25C3.22981 9.25 2.75817 8.88062 2.39808 8.23703C2.16529 7.8066 1.99937 7.34484 1.90577 6.86688C2.14009 6.97013 2.39721 7.01448 2.65364 6.99586C2.91007 6.97724 3.15763 6.89625 3.37368 6.76029C3.58972 6.62433 3.76737 6.43775 3.89039 6.21759C4.0134 5.99742 4.07785 5.75071 4.07785 5.5C4.07785 5.24929 4.0134 5.00258 3.89039 4.78241C3.76737 4.56225 3.58972 4.37567 3.37368 4.23971C3.15763 4.10375 2.91007 4.02276 2.65364 4.00414C2.39721 3.98552 2.14009 4.02987 1.90577 4.13312C1.99937 3.65516 2.16529 3.1934 2.39808 2.76297C2.75817 2.11937 3.22981 1.75 3.69231 1.75C4.15481 1.75 4.62644 2.11937 4.98654 2.76297C5.39183 3.48766 5.61538 4.45984 5.61538 5.5C5.61538 6.54016 5.39183 7.51234 4.98654 8.23703ZM9.60192 8.23703C9.24183 8.88062 8.77019 9.25 8.30769 9.25C7.84519 9.25 7.37356 8.88062 7.01346 8.23703C6.78067 7.8066 6.61476 7.34484 6.52115 6.86688C6.75547 6.97013 7.0126 7.01448 7.26903 6.99586C7.52546 6.97724 7.77301 6.89625 7.98906 6.76029C8.20511 6.62433 8.38276 6.43775 8.50577 6.21759C8.62878 5.99742 8.69324 5.75071 8.69324 5.5C8.69324 5.24929 8.62878 5.00258 8.50577 4.78241C8.38276 4.56225 8.20511 4.37567 7.98906 4.23971C7.77301 4.10375 7.52546 4.02276 7.26903 4.00414C7.0126 3.98552 6.75547 4.02987 6.52115 4.13312C6.61476 3.65516 6.78067 3.1934 7.01346 2.76297C7.37356 2.11937 7.84519 1.75 8.30769 1.75C8.77019 1.75 9.24183 2.11937 9.60192 2.76297C10.0072 3.48766 10.2308 4.45984 10.2308 5.5C10.2308 6.54016 10.0072 7.51234 9.60192 8.23703Z" fill="#B9B9B9"/>
</svg>
