<svg width="37" height="36" viewBox="0 0 37 36" fill="none" xmlns="http://www.w3.org/2000/svg">
<path d="M15.928 21.0696L18.3007 23L21.0708 19.1429" stroke="white" stroke-linecap="round" stroke-linejoin="round"/>
<path d="M24.1099 11.4288C25.2714 11.4288 26.2142 12.3716 26.2142 13.5329V24.7527C26.2142 25.9142 25.2714 26.857 24.1099 26.857H12.8901C11.7287 26.857 10.7859 25.9142 10.7859 24.7527V13.5329C10.7859 12.3716 11.7287 11.4288 12.8901 11.4288H24.1099ZM24.1099 10.1431H12.8901C11.0174 10.1431 9.50024 11.6602 9.50024 13.5329V24.7527C9.50024 26.6256 11.0174 28.1427 12.8901 28.1427H24.1099C25.9828 28.1427 27.4999 26.6256 27.4999 24.7527V13.5329C27.4999 11.6602 25.9828 10.1431 24.1099 10.1431Z" fill="white"/>
<path d="M14.6426 8.8573V12.7144" stroke="white" stroke-miterlimit="10" stroke-linecap="round"/>
<path d="M22.3574 8.8573V12.7144" stroke="white" stroke-miterlimit="10" stroke-linecap="round"/>
<path d="M10.7864 16.5712H27.5004" stroke="white" stroke-miterlimit="10"/>
</svg>
