<svg width="12" height="12" viewBox="0 0 12 12" fill="none" xmlns="http://www.w3.org/2000/svg">
<path d="M11 2.75001V8.75005C11 8.94897 10.919 9.13973 10.7747 9.28039C10.6304 9.42104 10.4348 9.50006 10.2308 9.50006H7.32548L6.66779 10.6223C6.60049 10.737 6.50329 10.8324 6.38602 10.8987C6.26875 10.9651 6.13558 11 6 11C5.86442 11 5.73125 10.9651 5.61398 10.8987C5.49671 10.8324 5.39951 10.737 5.33221 10.6223L4.67452 9.50006H1.76923C1.56522 9.50006 1.36956 9.42104 1.2253 9.28039C1.08104 9.13973 1 8.94897 1 8.75005V2.75001C1 2.55109 1.08104 2.36033 1.2253 2.21967C1.36956 2.07902 1.56522 2 1.76923 2H10.2308C10.4348 2 10.6304 2.07902 10.7747 2.21967C10.919 2.36033 11 2.55109 11 2.75001Z" fill="#B9B9B9"/>
</svg>
